<svg viewBox="0 0 64 64" xmlns="http://www.w3.org/2000/svg"><path d="M37.989 26.227H5.44a2.724 2.724 0 0 0-2.724 2.723v21.527a2.724 2.724 0 0 0 2.724 2.724H15.52a1.456 1.456 0 0 1 1.456 1.456v5.08a1.605 1.605 0 0 0 2.675 1.196l8-7.17a2.202 2.202 0 0 1 1.47-.562h8.868a2.724 2.724 0 0 0 2.723-2.724V28.95a2.724 2.724 0 0 0-2.723-2.723ZM21.715 44.254H11.008a1.35 1.35 0 1 1 0-2.699h10.707a1.35 1.35 0 1 1 0 2.7Zm10.708 0h-4.176a1.35 1.35 0 1 1 0-2.699h4.176a1.35 1.35 0 0 1 0 2.7Zm0-6.838H11.008a1.35 1.35 0 1 1 0-2.699h21.415a1.35 1.35 0 0 1 0 2.7Z" fill="#d1d1d1" class="fill-000000"></path><path d="M58.56 6.688H26.01a2.724 2.724 0 0 0-2.723 2.723v14.116h14.7a5.43 5.43 0 0 1 5.424 5.423v7.16l5.895 5.283a1.605 1.605 0 0 0 2.676-1.194v-5.081a1.456 1.456 0 0 1 1.456-1.456h5.12a2.724 2.724 0 0 0 2.724-2.724V9.411a2.724 2.724 0 0 0-2.724-2.723ZM52.992 24.59h-7.11a1.35 1.35 0 1 1 0-2.7h7.11a1.35 1.35 0 1 1 0 2.7Zm0-6.632H31.578a1.35 1.35 0 1 1 0-2.7h21.415a1.35 1.35 0 1 1 0 2.7Z" fill="#d1d1d1" class="fill-000000"></path></svg>